<svg xmlns="http://www.w3.org/2000/svg" viewBox="0 0 320 220"><rect width="320" height="220" rx="20" fill="#e0f3df"/><circle cx="92" cy="65" r="20" fill="#e8b68b"/><path d="M58 141V99q34-30 68 0v42" fill="#00834a"/><circle cx="229" cy="66" r="20" fill="#bf805d"/><path d="M195 141V99q34-30 68 0v42" fill="#f0c254"/><path d="m114 111 25 26m67-26-25 26" stroke="#0c2941" stroke-width="8" stroke-linecap="round"/><rect x="119" y="129" width="83" height="52" rx="9" fill="#dcb986"/><path d="M157 140v26m-12-13h25" stroke="#00834a" stroke-width="5" stroke-linecap="round"/><path d="M53 193q109-24 218 0" fill="none" stroke="#b9d9b4" stroke-width="12"/><path d="M144 63c-15-21 9-34 17-17 8-17 32-4 17 17l-17 16Z" fill="#a8492f"/></svg>